<svg width="1472" height="286" viewBox="0 0 1472 286" fill="none" xmlns="http://www.w3.org/2000/svg">
<mask id="mask0_3_55" style="mask-type:luminance" maskUnits="userSpaceOnUse" x="0" y="40" width="695" height="177">
<path d="M694.568 40.0571H0V216.824H694.568V40.0571Z" fill="white"/>
</mask>
<g mask="url(#mask0_3_55)">
<path d="M129.938 148.038C124.326 144.81 117.996 143.879 111.725 143.676C106.464 143.501 98.6252 140.156 98.6252 130.587C98.6552 127.14 100.042 123.841 102.49 121.396C104.938 118.951 108.252 117.552 111.725 117.499C117.996 117.28 124.326 116.35 129.938 113.136C134.977 110.24 139.16 106.079 142.067 101.071C144.973 96.0636 146.501 90.3853 146.496 84.6062C146.492 78.8272 144.956 73.1506 142.042 68.1473C139.128 63.1441 134.939 58.9895 129.895 56.1008C124.852 53.2124 119.131 51.6917 113.309 51.6914C107.486 51.6911 101.766 53.2113 96.7214 56.0993C91.6778 58.9872 87.4889 63.1417 84.5744 68.1444C81.6599 73.1477 80.1232 78.8237 80.1185 84.6027C80.1185 90.9874 82.4043 96.8625 85.335 102.316C87.7819 106.897 89.0274 115.404 80.6017 120.218C77.5565 121.9 73.9687 122.33 70.6075 121.417C67.2462 120.503 64.3796 118.318 62.6227 115.332C59.3256 110.096 55.2962 105.152 49.772 101.996C44.7264 99.1077 39.0038 97.5879 33.1791 97.5897C27.3543 97.5914 21.6326 99.1146 16.5888 102.006C11.5449 104.897 7.35671 109.055 4.44482 114.062C1.53295 119.069 0 124.748 0 130.529C0 136.31 1.53295 141.989 4.44482 146.995C7.35671 152.002 11.5449 156.16 16.5888 159.052C21.6326 161.943 27.3543 163.466 33.1791 163.468C39.0038 163.47 44.7264 161.95 49.772 159.062C55.3402 155.862 59.3256 150.961 62.6227 145.726C65.3332 141.363 72.0887 135.953 80.6017 140.839C83.5919 142.617 85.7609 145.488 86.6434 148.835C87.5254 152.182 87.0503 155.739 85.3199 158.742C82.3898 164.195 80.1185 170.07 80.1185 176.454C80.1185 182.238 81.653 187.92 84.5669 192.929C87.4808 197.938 91.6714 202.098 96.718 204.99C101.765 207.882 107.49 209.405 113.317 209.406C119.145 209.407 124.87 207.886 129.917 204.995C134.965 202.104 139.157 197.946 142.073 192.938C144.988 187.929 146.523 182.248 146.526 176.464C146.528 170.681 144.996 164.998 142.085 159.988C139.173 154.978 134.984 150.816 129.938 147.922V148.038Z" fill="white"/>
<path d="M192.188 80.5148H215.296V91.3347C218.377 87.6138 222.248 84.6143 226.633 82.5504C231.018 80.4864 235.807 79.409 240.66 79.3951C243.951 79.2729 247.243 79.6504 250.419 80.5148V106.692C250.419 106.692 247.225 105.572 239.532 105.572C226.344 105.572 217.553 114.298 217.553 127.386V180.83H192.188V80.5148ZM316.372 80.5148H339.48V90.2151C347.369 83.3018 357.515 79.4582 368.039 79.3951C393.403 79.3951 415.383 101.209 415.383 130.672C415.383 160.136 393.403 181.95 368.039 181.95C358.347 181.975 348.985 178.46 341.736 172.076V216.823H316.372V80.5148ZM390.018 130.672C390.018 114.269 379.116 103.449 364.844 103.449C350.572 103.449 339.48 114.225 339.48 130.672C339.48 147.12 350.557 157.853 364.859 157.853C379.16 157.853 390.018 147.091 390.018 130.672ZM433.977 80.5148H457.085V90.2151C464.976 83.3053 475.12 79.4623 485.643 79.3951C511.008 79.3951 532.987 101.209 532.987 130.672C532.987 160.136 511.008 181.95 485.643 181.95C475.954 181.967 466.594 178.453 459.341 172.076V216.823H433.977V80.5148ZM507.638 130.672C507.638 114.269 496.736 103.449 482.449 103.449C468.162 103.449 457.085 114.225 457.085 130.672C457.085 147.12 468.177 157.853 482.449 157.853C496.721 157.853 507.638 147.091 507.638 130.672ZM551.597 43.4164H576.96V180.83H551.597V43.4164ZM595.556 130.672C595.556 102.343 618.662 79.3951 646.091 79.3951C672.572 79.3951 694.551 100.104 694.551 130.672C694.447 133.994 694.065 137.301 693.423 140.561H622.985C625.245 150.262 633.006 157.853 646.091 157.853C657.933 157.853 662.637 152.458 662.637 152.458H690.066C684.98 165.546 669.202 181.906 646.108 181.906C618.662 181.95 595.556 159.017 595.556 130.672ZM670.283 123.038C669.133 117.504 666.093 112.534 661.678 108.966C657.262 105.398 651.743 103.45 646.05 103.45C640.358 103.45 634.838 105.398 630.423 108.966C626.007 112.534 622.968 117.504 621.812 123.038H670.283ZM265.218 54.2217C265.218 50.438 266.733 46.8093 269.429 44.1338C272.125 41.4584 275.781 39.9553 279.593 39.9553C283.405 39.9553 287.062 41.4584 289.757 44.1338C292.454 46.8093 293.968 50.438 293.968 54.2217C293.968 58.0053 292.454 61.6342 289.757 64.3095C287.062 66.9848 283.405 68.4883 279.593 68.4883C275.781 68.4883 272.125 66.9848 269.429 64.3095C266.733 61.6342 265.218 58.0053 265.218 54.2217ZM266.919 80.5148H292.326V180.86H266.963L266.919 80.5148Z" fill="white"/>
</g>
<path d="M796.227 182.353C791.794 182.353 787.673 181.591 783.87 180.068C780.068 178.417 776.773 176.131 773.982 173.211C771.19 170.163 768.977 166.544 767.324 162.354C765.804 158.036 765.047 153.211 765.047 147.878V99.8783H747.171V81.0214H754.968C758.898 81.0214 762.128 79.7517 764.666 77.2119C767.203 74.6721 768.468 71.434 768.468 67.4977V54.1646H785.009V81.0214H807.254V99.8783H785.009V147.878C785.009 152.322 786.465 156.004 789.384 158.925C792.424 161.846 796.163 163.306 800.602 163.306C801.492 163.306 802.312 163.306 803.075 163.306C803.832 163.179 804.532 163.052 805.167 162.925C805.797 162.798 806.497 162.608 807.254 162.354V180.068C806.369 180.449 805.352 180.83 804.214 181.211C803.202 181.465 801.994 181.718 800.602 181.972C799.336 182.227 797.874 182.353 796.227 182.353ZM826.765 81.0214H845.779V90.926C847.553 88.8945 849.709 87.0528 852.246 85.4023C854.402 84.0053 857.06 82.7356 860.227 81.5928C863.4 80.4499 867.076 79.8785 871.26 79.8785C872.653 79.8785 873.791 79.9422 874.681 80.069C875.693 80.1958 876.519 80.3232 877.155 80.4499C877.912 80.7041 878.548 80.8946 879.056 81.0214V101.021C878.293 100.894 877.53 100.704 876.773 100.45C876.138 100.323 875.317 100.196 874.3 100.069C873.416 99.9419 872.398 99.8783 871.26 99.8783C867.96 99.8783 864.793 100.513 861.753 101.783C858.834 103.053 856.239 104.831 853.956 107.116C851.801 109.275 850.027 111.878 848.634 114.926C847.362 117.846 846.732 121.021 846.732 124.449V181.211H826.765V81.0214ZM933.463 182.353C926.742 182.353 920.465 181.084 914.634 178.544C908.93 176.004 903.925 172.512 899.613 168.068C895.308 163.496 891.881 158.1 889.349 151.878C886.939 145.528 885.737 138.608 885.737 131.116C885.737 123.624 886.939 116.767 889.349 110.545C891.881 104.195 895.244 98.7991 899.423 94.3545C903.734 89.7832 908.681 86.2278 914.258 83.688C919.962 81.1482 926.042 79.8785 932.509 79.8785C938.849 79.8785 944.808 81.1482 950.385 83.688C956.089 86.2278 961.03 89.7832 965.215 94.3545C969.526 98.7991 972.884 104.195 975.294 110.545C977.825 116.767 979.097 123.624 979.097 131.116C979.097 132.259 979.033 133.338 978.906 134.354C978.779 135.37 978.652 136.322 978.525 137.211C978.27 138.227 978.08 139.18 977.952 140.068H906.843C907.092 143.116 907.918 146.037 909.311 148.83C910.831 151.623 912.732 154.1 915.015 156.258C917.425 158.417 920.153 160.132 923.193 161.401C926.36 162.671 929.787 163.306 933.463 163.306C936.503 163.306 939.104 163.052 941.254 162.544C943.536 162.036 945.438 161.401 946.958 160.639C948.611 159.751 950.003 158.798 951.142 157.782C952.413 156.766 953.616 155.687 954.754 154.544H975.86C974.34 158.1 972.375 161.528 969.965 164.83C967.561 168.132 964.643 171.115 961.221 173.782C957.8 176.322 953.743 178.417 949.05 180.068C944.49 181.591 939.294 182.353 933.463 182.353ZM960.268 123.307C959.129 116.069 956.153 110.164 951.333 105.592C946.646 101.021 940.369 98.7354 932.509 98.7354C925.667 98.7354 919.962 101.021 915.397 105.592C910.831 110.164 907.982 116.069 906.843 123.307H960.268ZM1038.65 182.353C1031.94 182.353 1025.66 181.084 1019.83 178.544C1014.13 176.004 1009.12 172.512 1004.81 168.068C1000.5 163.496 997.076 158.1 994.539 151.878C992.135 145.528 990.927 138.608 990.927 131.116C990.927 123.624 992.135 116.767 994.539 110.545C997.076 104.195 1000.5 98.7991 1004.81 94.3545C1009.12 89.7832 1014.13 86.2278 1019.83 83.688C1025.66 81.1482 1031.94 79.8785 1038.65 79.8785C1043.73 79.8785 1048.03 80.4499 1051.58 81.5928C1055.26 82.7356 1058.3 84.0053 1060.71 85.4023C1063.5 87.0528 1065.84 88.8945 1067.75 90.926V81.0214H1086.57V181.211H1067.75V171.115C1065.84 173.274 1063.5 175.179 1060.71 176.83C1058.3 178.227 1055.26 179.496 1051.58 180.639C1048.03 181.782 1043.73 182.353 1038.65 182.353ZM1039.8 163.306C1043.73 163.306 1047.4 162.544 1050.82 161.02C1054.37 159.37 1057.48 157.147 1060.14 154.354C1062.8 151.433 1064.89 148.004 1066.42 144.068C1067.94 140.132 1068.69 135.814 1068.69 131.116C1068.69 126.418 1067.94 122.1 1066.42 118.164C1064.89 114.1 1062.8 110.672 1060.14 107.878C1057.48 104.957 1054.37 102.735 1050.82 101.212C1047.4 99.561 1043.73 98.7354 1039.8 98.7354C1035.87 98.7354 1032.13 99.561 1028.58 101.212C1025.15 102.735 1022.11 104.957 1019.45 107.878C1016.79 110.672 1014.7 114.1 1013.18 118.164C1011.65 122.1 1010.89 126.418 1010.89 131.116C1010.89 135.814 1011.65 140.132 1013.18 144.068C1014.7 148.004 1016.79 151.433 1019.45 154.354C1022.11 157.147 1025.15 159.37 1028.58 161.02C1032.13 162.544 1035.87 163.306 1039.8 163.306ZM1145.57 182.353C1133.27 182.353 1123.82 179.496 1117.23 173.782C1110.77 167.941 1107.22 159.623 1106.58 148.83H1126.55C1127.18 153.275 1129.08 156.83 1132.26 159.497C1135.42 162.036 1139.86 163.306 1145.57 163.306C1151.64 163.306 1156.08 162.099 1158.87 159.687C1161.79 157.275 1163.24 154.417 1163.24 151.116C1163.24 148.195 1161.91 145.973 1159.25 144.449C1156.72 142.799 1153.42 141.465 1149.37 140.449C1145.44 139.306 1141.19 138.227 1136.62 137.211C1132.06 136.068 1127.75 134.481 1123.7 132.449C1119.77 130.418 1116.47 127.687 1113.81 124.259C1111.28 120.704 1110 115.942 1110 109.973C1110 105.783 1110.77 101.847 1112.29 98.164C1113.93 94.4813 1116.22 91.307 1119.13 88.6403C1122.18 85.9737 1125.79 83.8785 1129.97 82.3547C1134.28 80.7041 1139.1 79.8785 1144.42 79.8785C1156.21 79.8785 1165.08 82.6719 1171.04 88.2594C1177.13 93.8468 1180.48 101.402 1181.12 110.926H1161.15C1160.52 107.624 1158.81 104.767 1156.02 102.354C1153.36 99.942 1149.49 98.7354 1144.42 98.7354C1139.35 98.7354 1135.49 99.8783 1132.82 102.164C1130.16 104.45 1128.83 107.053 1128.83 109.973C1128.83 112.894 1130.16 115.116 1132.82 116.64C1135.49 118.164 1138.78 119.497 1142.71 120.64C1146.64 121.656 1150.89 122.735 1155.45 123.878C1160.14 124.894 1164.45 126.481 1168.38 128.64C1172.31 130.671 1175.61 133.465 1178.26 137.021C1180.93 140.449 1182.26 145.147 1182.26 151.116C1182.26 155.56 1181.44 159.687 1179.79 163.496C1178.14 167.306 1175.73 170.608 1172.56 173.401C1169.52 176.195 1165.72 178.417 1161.15 180.068C1156.59 181.591 1151.39 182.353 1145.57 182.353ZM1239.61 182.353C1234.04 182.353 1228.78 181.274 1223.83 179.115C1219.01 176.956 1214.77 173.973 1211.09 170.163C1207.54 166.354 1204.69 161.782 1202.53 156.449C1200.51 151.116 1199.49 145.275 1199.49 138.925V81.0214H1219.46V138.925C1219.46 142.227 1220.09 145.401 1221.36 148.449C1222.63 151.37 1224.34 153.973 1226.49 156.258C1228.78 158.417 1231.31 160.132 1234.1 161.401C1236.88 162.671 1239.8 163.306 1242.84 163.306C1246.26 163.306 1249.44 162.671 1252.35 161.401C1255.4 160.132 1257.99 158.417 1260.15 156.258C1262.43 153.973 1264.2 151.37 1265.47 148.449C1266.74 145.401 1267.37 142.227 1267.37 138.925V81.0214H1287.34V181.211H1268.51V171.115C1266.61 173.274 1264.27 175.179 1261.48 176.83C1259.07 178.227 1256.03 179.496 1252.35 180.639C1248.8 181.782 1244.55 182.353 1239.61 182.353ZM1312.16 81.0214H1331.17V90.926C1332.95 88.8945 1335.1 87.0528 1337.64 85.4023C1339.79 84.0053 1342.46 82.7356 1345.62 81.5928C1348.79 80.4499 1352.47 79.8785 1356.65 79.8785C1358.04 79.8785 1359.19 79.9422 1360.07 80.069C1361.09 80.1958 1361.91 80.3232 1362.55 80.4499C1363.31 80.7041 1363.94 80.8946 1364.45 81.0214V101.021C1363.68 100.894 1362.93 100.704 1362.16 100.45C1361.53 100.323 1360.71 100.196 1359.7 100.069C1358.81 99.9419 1357.79 99.8783 1356.65 99.8783C1353.36 99.8783 1350.19 100.513 1347.14 101.783C1344.23 103.053 1341.63 104.831 1339.35 107.116C1337.19 109.275 1335.42 111.878 1334.02 114.926C1332.76 117.846 1332.12 121.021 1332.12 124.449V181.211H1312.16V81.0214ZM1394.71 217.972C1392.81 217.972 1391.22 217.781 1389.95 217.401C1389.19 217.274 1388.49 217.083 1387.86 216.829V200.067C1393.56 200.067 1397.87 198.861 1400.79 196.448C1403.71 194.036 1405.73 191.179 1406.87 187.877L1410.11 177.782L1371.32 81.0214H1392.42L1420.18 153.401L1447.95 81.0214H1469.05L1426.84 187.877C1424.56 193.465 1422.34 198.163 1420.18 201.972C1418.03 205.782 1415.69 208.893 1413.15 211.305C1410.74 213.718 1408.02 215.432 1404.97 216.448C1401.93 217.464 1398.51 217.972 1394.71 217.972Z" fill="white"/>
</svg>
